<?xml version="1.0" encoding="utf-8"?>
<!-- Generator: Adobe Illustrator 25.0.0, SVG Export Plug-In . SVG Version: 6.00 Build 0)  -->
<svg version="1.1" id="Layer_1" xmlns="http://www.w3.org/2000/svg" xmlns:xlink="http://www.w3.org/1999/xlink" x="0px" y="0px"
	 viewBox="0 0 681.7 237.8" style="enable-background:new 0 0 681.7 237.8;" xml:space="preserve">
<style type="text/css">
	.st0{fill:#F16123;}
	.st1{fill:#FFFFFF;}
</style>
<path class="st0" d="M84.2,237.8C2.9,194.5,1.4,135,1.4,135L0,64.6l68.4-26l16.2,17L70.4,67.5L56.8,52.5L9.5,69.2l0.5,61.4
	c2.2,28.4,20.4,52.7,20.4,52.7C48.5,210.9,83.2,237,84.2,237.8z"/>
<path class="st0" d="M160.8,101V69.9l-48.3-17.2L98.1,67.5L84.5,55.6l15-17l69,25.5C168.6,77,160.8,101,160.8,101z"/>
<polygon class="st1" points="88.4,73.6 91.1,87.4 91.1,87.4 74,103.2 79.7,73.6 75.8,67.8 84.3,59.5 93.3,66.5 "/>
<polygon class="st1" points="94,102.8 69.7,125.2 72.4,111.1 92.1,92.9 "/>
<polygon class="st1" points="96.9,118.2 65.5,147.2 68.2,133.1 68.2,133.1 95,108.3 "/>
<polygon class="st1" points="99.8,133.6 61.2,169.2 64,155.1 97.9,123.7 "/>
<polygon class="st1" points="102.8,149 71,178.3 64.7,172.5 100.9,139.1 "/>
<polygon class="st1" points="106.6,169.5 84.3,190.4 74.5,181.5 103.8,154.5 "/>
<path class="st0" d="M15.1,104.4l6.6-1.7c0,0-9,55.4,39.6,101.5C61.2,204.3,13.6,176.4,15.1,104.4z"/>
<polygon class="st0" points="131.9,65.6 154.8,73.5 155.2,103.1 150.7,77.2 "/>
<circle class="st1" cx="84.5" cy="15.3" r="15.3"/>
<path class="st1" d="M117.8,209.9c2.7-5,4-13.5,4-25.6V80.8h23.4v103.5c0,10.7-1.1,18.8-3.3,24.3c-2.1,5.4-6.3,9.7-11.8,11.8
	c-5.6,2.3-13.9,3.4-24.9,3.4C88.7,223.8,115.1,214.8,117.8,209.9z"/>
<path class="st1" d="M177.5,190.3c-5.7-3.3-10.3-8.2-13.3-14c-6.1-12.5-6.1-27.1,0-39.6c3-5.8,7.6-10.7,13.3-14
	c12.6-6.9,27.9-6.9,40.5,0c5.7,3.3,10.3,8.2,13.3,14c6.1,12.5,6.1,27.1,0,39.6c-3,5.8-7.6,10.7-13.3,14
	C205.4,197.2,190.1,197.2,177.5,190.3L177.5,190.3z M210.1,179.6c2.9-5.8,4.3-13.5,4.3-23c0-9.5-1.4-17.2-4.3-23.1
	c-2.9-5.8-7-8.7-12.4-8.7s-9.5,2.9-12.4,8.7c-2.9,5.8-4.3,13.5-4.3,23.1s1.4,17.2,4.3,23c2.9,5.8,7,8.8,12.4,8.8
	C203.2,188.2,207.3,185.3,210.1,179.6z"/>
<path class="st1" d="M278,192.9c-2.8-1.4-5.3-3.5-7-6.2c0,0-11.5-4.6-19.9,7.1v-84.3c0-5.4-0.7-9.4-2.2-12
	c-1.6-4.6-5.7-7.9-10.5-8.7h19.1c3.8,0,6.7,0.6,8.7,1.9c2.2,1.5,3.7,3.7,4.3,6.3c1,4.1,1.4,8.3,1.3,12.5v12.7
	c5-3.2,10.8-4.8,16.7-4.8c11,0,19.5,3.6,25.4,10.9c5.9,7.3,8.8,16.6,8.8,28.1c0,11.4-2.9,20.8-8.7,28.1c-5.8,7.3-14,10.9-24.7,10.9
	C285.4,195.6,281.5,194.7,278,192.9z M297.6,179.7c2.4-5.7,3.6-13.5,3.6-23.2c0-21.2-5.3-31.8-15.9-31.8c-4.5,0-9,1.6-13.5,4.8V178
	c1.3,2.9,3.2,5.4,5.7,7.3c2.4,2,5.5,3,8.6,3C291.3,188.3,295.2,185.4,297.6,179.7z"/>
<path class="st0" d="M314.4,119.3h269.2c47.5,0,50.9-7.7,86.1,70.6l0,0l0,0H400.5C321.3,189.6,363,165,314.4,119.3L314.4,119.3
	L314.4,119.3z"/>
<g>
	<path class="st1" d="M556.9,141.3c0.1-1.7-0.2-3.4-0.9-4.9c-0.6-1.1-1.8-1.6-3.7-1.6h-0.7v-2h17.9c4.2-0.1,8.4,0.8,12.2,2.6
		c3.6,1.8,5.5,5.3,5.5,10.5c0,3.4-0.9,6-2.8,7.9c-1.8,1.8-4,3.1-6.4,3.7c-2.1,0.6-4.3,0.9-6.5,0.9h-6.2v17.4h-8.5V141.3z
		 M569.3,155.8c2.3,0.1,4.6-0.8,6.3-2.3c1.6-1.6,2.4-4.2,2.4-7.9c0-3.7-0.8-6.3-2.4-7.8c-1.6-1.6-3.8-2.4-6-2.4
		c-1.4,0-2.8,0.2-4.2,0.5v20L569.3,155.8z"/>
	<path class="st1" d="M615.4,147.7c0.2,0.3,0.4,0.7,0.5,1.1l-3.3,2.5c-0.5-0.7-1.2-1.3-1.9-1.8c-0.8-0.5-1.7-0.8-2.6-0.7
		c-2.5,0-4.5,0.7-5.8,2c0.1,1,0.2,2.1,0.3,3.1v21.9h-8.5v-22.2c0.1-1.7-0.2-3.4-0.9-4.9c-0.6-1.1-1.8-1.6-3.6-1.6h-0.6v-2h6.5
		c1.2,0,2.4,0.1,3.5,0.6c0.9,0.4,1.6,1,2,1.9c2.3-2,5.2-3.1,8.2-3.1c1.6-0.1,3.3,0.4,4.6,1.3C614.4,146.3,615,147,615.4,147.7z"/>
	<path class="st1" d="M625.2,174.4c-2.3-1.4-4.2-3.4-5.4-5.7c-2.5-5.1-2.5-11.1,0-16.2c1.2-2.4,3.1-4.4,5.4-5.7
		c5.2-2.8,11.5-2.8,16.6,0c2.3,1.4,4.2,3.4,5.4,5.7c2.5,5.1,2.5,11.1,0,16.2c-1.2,2.4-3.1,4.4-5.4,5.7
		C636.7,177.2,630.4,177.2,625.2,174.4z M638.6,170c1.2-2.4,1.8-5.5,1.8-9.5c0-3.9-0.6-7.1-1.8-9.5c-1.2-2.4-2.9-3.6-5.1-3.6
		c-2.2,0-3.9,1.2-5.1,3.6c-1.2,2.4-1.8,5.5-1.8,9.5c0,3.9,0.6,7.1,1.8,9.5c1.2,2.4,2.9,3.6,5.1,3.6S637.4,172.4,638.6,170L638.6,170
		z"/>
</g>
<path class="st1" d="M354.4,141.2c0-2.2-0.3-3.9-0.9-5c-0.6-1.1-1.8-1.6-3.7-1.6h-0.7v-2h7.9c1.6,0,2.8,0.3,3.6,0.8
	c0.8,0.5,1.4,1.4,1.8,2.6s0.5,2.9,0.5,5.2V152h17.7v-19.4h8.5v34.8c0,2.2,0.3,3.9,0.9,5c0.6,1.1,1.8,1.6,3.7,1.6h0.7v2h-7.9
	c-1.6,0-2.8-0.3-3.6-0.8c-0.8-0.5-1.4-1.4-1.8-2.6c-0.4-1.2-0.5-2.9-0.5-5.2V155H363v21h-8.5V141.2z"/>
<path class="st1" d="M403.1,173.8c-2-1.9-3-5-3-9.2v-10.9c0-2.2-0.3-3.9-0.9-5c-0.6-1.1-1.8-1.6-3.7-1.6h-0.7v-2h7.9
	c1.6,0,2.8,0.3,3.6,0.8c0.8,0.5,1.4,1.4,1.8,2.6c0.4,1.2,0.5,2.9,0.5,5.2v11c0,3.3,0.5,5.6,1.4,7c0.9,1.4,2.3,2.1,4.2,2.1
	c1.4,0,2.6-0.4,3.6-1.3c1-0.9,1.8-1.9,2.3-3v-24.3h8.5V176h-5.6l-2.3-3h-0.3c-2.2,2.4-5,3.6-8.2,3.6
	C408.1,176.6,405,175.7,403.1,173.8z"/>
<path class="st1" d="M437.9,153.6c0-2.2-0.3-3.9-0.9-5c-0.6-1.1-1.8-1.6-3.6-1.6h-0.7v-2h6.5c1.5,0,2.7,0.2,3.5,0.6
	c0.9,0.4,1.5,1,2,1.9c2.2-2.1,5.4-3.1,9.6-3.1c4.2,0,7.3,1,9.4,2.9c2.1,1.9,3.1,5,3.1,9.2V176h-8.5v-19.5c0-3-0.6-5.2-1.7-6.6
	c-1.1-1.4-2.6-2.1-4.6-2.1c-2.3,0-4.2,0.5-5.6,1.6V176h-8.5V153.6z"/>
<path class="st1" d="M478.2,174.2c-1.7-1.6-2.5-4-2.5-7.1v-19h-3.9v-3h3.9v-5.9l3.3-3.9h5.3v9.9h7.2v3h-7.2v19.4
	c0,2.4,0.3,4,0.9,4.9c0.6,0.9,1.4,1.3,2.6,1.3c1.8,0,3.5-0.6,5.2-1.8l0.9,1.8c-2.2,1.9-5,2.9-8.5,2.9
	C482.2,176.6,479.9,175.8,478.2,174.2z"/>
<path class="st1" d="M503.3,174.5c-2.3-1.4-4-3.3-5.3-5.7c-1.2-2.4-1.9-5.2-1.9-8.2c0-3.4,0.6-6.3,1.9-8.7c1.2-2.4,3-4.2,5.2-5.5
	c2.2-1.2,4.7-1.9,7.4-1.9c2.7,0,5.2,0.5,7.4,1.6c2.2,1.1,3.9,2.6,5.2,4.6c1.3,2,1.9,4.3,1.9,6.9l-0.3,4.1H505c0,4.2,0.6,7.2,1.9,9.1
	c1.3,1.9,3,2.9,5.3,2.9c2.1,0,3.9-0.5,5.3-1.4c1.4-0.9,2.8-2.3,4.1-4l2,1.5c-1.3,2-2.9,3.6-4.8,4.9c-1.9,1.3-4.5,2-7.7,2
	C508.2,176.6,505.5,175.9,503.3,174.5z M516.1,158.8c0-4.1-0.5-7-1.4-8.8c-1-1.7-2.3-2.6-4.1-2.6c-1.7,0-3,0.9-4,2.7
	c-1,1.8-1.5,4.7-1.5,8.7H516.1z"/>
<path class="st1" d="M553.9,147.6c0.4,0.7,0.5,1,0.5,1.1l-3.4,2.6c-0.5-0.7-1.1-1.3-1.9-1.8c-0.8-0.5-1.7-0.8-2.6-0.8
	c-2.5,0-4.5,0.7-5.8,2c0.2,1.4,0.3,2.5,0.3,3.2V176h-8.5v-22.3c0-2.2-0.3-3.9-0.9-5c-0.6-1.1-1.8-1.6-3.6-1.6h-0.7v-2h6.5
	c1.5,0,2.7,0.2,3.5,0.6c0.9,0.4,1.5,1,2,1.9c2.4-2.1,5.1-3.1,8.3-3.1c1.9,0,3.4,0.4,4.7,1.3C552.9,146.3,553.5,147,553.9,147.6z"/>
</svg>
